<?xml version="1.0" encoding="UTF-8"?>
<svg version="1.1" xmlns="http://www.w3.org/2000/svg" width="900" height="900">
<path d="M0 0 C297 0 594 0 900 0 C900 297 900 594 900 900 C603 900 306 900 0 900 C0 603 0 306 0 0 Z " fill="#04070A" transform="translate(0,0)"/>
<path d="M0 0 C237.6 0 475.2 0 720 0 C720 116.82 720 233.64 720 354 C482.4 354 244.8 354 0 354 C0 237.18 0 120.36 0 0 Z " fill="#0C121A" transform="translate(90,273)"/>
<path d="M0 0 C212.52 0 425.04 0 644 0 C644 1.32 644 2.64 644 4 C431.48 4 218.96 4 0 4 C0 2.68 0 1.36 0 0 Z " fill="#2DDCFA" transform="translate(128,585)"/>
<path d="M0 0 C1.32 0 2.64 0 4 0 C4 1.65 4 3.3 4 5 C102.01 5 200.02 5 301 5 C301 3.35 301 1.7 301 0 C302.32 0 303.64 0 305 0 C305 2.64 305 5.28 305 8 C204.35 8 103.7 8 0 8 C0 5.36 0 2.72 0 0 Z " fill="#1D90A6" transform="translate(297,366)"/>
<path d="M0 0 C100.32 0 200.64 0 304 0 C303.67 0.66 303.34 1.32 303 2 C302.95977609 4.3329866 302.95679753 6.66706666 303 9 C302.67 9 302.34 9 302 9 C302 7.02 302 5.04 302 3 C203.33 3 104.66 3 3 3 C3 4.98 3 6.96 3 9 C2.01 9 1.02 9 0 9 C0 6.03 0 3.06 0 0 Z " fill="#24B3CD" transform="translate(297,320)"/>
<path d="M0 0 C3.96 0 7.92 0 12 0 C12.33 1.32 12.66 2.64 13 4 C13.33 2.68 13.66 1.36 14 0 C14.639375 0.185625 15.27875 0.37125 15.9375 0.5625 C16.9584375 0.7790625 16.9584375 0.7790625 18 1 C18.33 0.67 18.66 0.34 19 0 C21.18639453 -0.07258946 23.37500389 -0.08373783 25.5625 -0.0625 C27.35880859 -0.04896484 27.35880859 -0.04896484 29.19140625 -0.03515625 C30.11824219 -0.02355469 31.04507813 -0.01195312 32 0 C33.22596039 3.67788118 32.84310077 4.78449613 32 9 C27.71 9 23.42 9 19 9 C19 8.01 19 7.02 19 6 C18.34 6 17.68 6 17 6 C16.67 6.99 16.34 7.98 16 9 C13.5625 8.625 13.5625 8.625 11 8 C10.67 7.34 10.34 6.68 10 6 C9.67 6.99 9.34 7.98 9 9 C6.03 9 3.06 9 0 9 C0 6.03 0 3.06 0 0 Z " fill="#187899" transform="translate(486,334)"/>
<path d="M0 0 C2.01822917 0.06510417 4.03645833 0.13020833 6.0546875 0.1953125 C6.0546875 1.5153125 6.0546875 2.8353125 6.0546875 4.1953125 C6.7146875 4.1953125 7.3746875 4.1953125 8.0546875 4.1953125 C8.0546875 2.8753125 8.0546875 1.5553125 8.0546875 0.1953125 C8.7146875 0.1953125 9.3746875 0.1953125 10.0546875 0.1953125 C10.0546875 3.1653125 10.0546875 6.1353125 10.0546875 9.1953125 C9.3946875 9.1953125 8.7346875 9.1953125 8.0546875 9.1953125 C8.0546875 7.8753125 8.0546875 6.5553125 8.0546875 5.1953125 C7.3946875 5.1953125 6.7346875 5.1953125 6.0546875 5.1953125 C6.0546875 6.5153125 6.0546875 7.8353125 6.0546875 9.1953125 C0 9.390625 0 9.390625 -1.9453125 9.1953125 C-3.9453125 7.1953125 -3.9453125 7.1953125 -4.1953125 4.6953125 C-3.88754876 1.61767512 -3.20963914 0.32225293 0 0 Z " fill="#145465" transform="translate(457.9453125,333.8046875)"/>
<path d="M0 0 C3.63 0 7.26 0 11 0 C12 4 12 4 11 9 C7.37 9 3.74 9 0 9 C0 6.03 0 3.06 0 0 Z " fill="#112E30" transform="translate(507,334)"/>
<path d="M0 0 C1.32 0 2.64 0 4 0 C4 2.64 4 5.28 4 8 C-21.08 8 -46.16 8 -72 8 C-72 7.67 -72 7.34 -72 7 C-47.91 6.67 -23.82 6.34 1 6 C0.505 5.505 0.505 5.505 0 5 C-0.04063832 3.33382885 -0.042721 1.66611905 0 0 Z " fill="#24B3CD" transform="translate(598,366)"/>
<path d="M0 0 C3.96 0 7.92 0 12 0 C13 4 13 4 13 6 C13.66 6.33 14.32 6.66 15 7 C15.144375 6.21625 15.28875 5.4325 15.4375 4.625 C16 2 16 2 17 0 C17.66 0 18.32 0 19 0 C19.66 2.97 20.32 5.94 21 9 C19.35 8.34 17.7 7.68 16 7 C16 7.66 16 8.32 16 9 C14.68 9 13.36 9 12 9 C11.67 7.68 11.34 6.36 11 5 C10.34 5 9.68 5 9 5 C9 6.32 9 7.64 9 9 C8.34 9 7.68 9 7 9 C7 6.36 7 3.72 7 1 C6.01 1 5.02 1 4 1 C4 3.64 4 6.28 4 9 C3.34 9 2.68 9 2 9 C2 6.36 2 3.72 2 1 C1.34 0.67 0.68 0.34 0 0 Z " fill="#229BB2" transform="translate(142,501)"/>
<path d="M0 0 C1.50433594 0.01353516 1.50433594 0.01353516 3.0390625 0.02734375 C3.80992187 0.03894531 4.58078125 0.05054688 5.375 0.0625 C4.385 0.5575 4.385 0.5575 3.375 1.0625 C3.375 3.3725 3.375 5.6825 3.375 8.0625 C4.035 8.3925 4.695 8.7225 5.375 9.0625 C3.39590602 9.08936553 1.41671029 9.10883375 -0.5625 9.125 C-1.66464844 9.13660156 -2.76679688 9.14820313 -3.90234375 9.16015625 C-6.625 9.0625 -6.625 9.0625 -7.625 8.0625 C-7.66592937 5.72952567 -7.66741723 3.39544775 -7.625 1.0625 C-4.98041621 -0.25979189 -2.94738699 -0.03427194 0 0 Z " fill="#165F71" transform="translate(369.625,333.9375)"/>
<path d="M0 0 C3.63 0 7.26 0 11 0 C11 2.97 11 5.94 11 9 C7.37 9 3.74 9 0 9 C-1.125 2.25 -1.125 2.25 0 0 Z " fill="#175968" transform="translate(129,501)"/>
<path d="M0 0 C4.62 0 9.24 0 14 0 C12.68 0.33 11.36 0.66 10 1 C10 1.99 10 2.98 10 4 C10.99 4.33 11.98 4.66 13 5 C12.01 5 11.02 5 10 5 C10 5.99 10 6.98 10 8 C11.32 8.33 12.64 8.66 14 9 C12.54257537 9.08096803 11.08387193 9.13917774 9.625 9.1875 C8.81289063 9.22230469 8.00078125 9.25710938 7.1640625 9.29296875 C6.44992187 9.19628906 5.73578125 9.09960938 5 9 C4.34 8.01 3.68 7.02 3 6 C2.67 6.99 2.34 7.98 2 9 C1.34 9 0.68 9 0 9 C0 6.03 0 3.06 0 0 Z " fill="#13424C" transform="translate(408,334)"/>
<path d="M0 0 C0.66 0 1.32 0 2 0 C2 2.64 2 5.28 2 8 C2.66 8 3.32 8 4 8 C4 5.36 4 2.72 4 0 C6.97 0 9.94 0 13 0 C12 2 12 2 10 3 C11.32 3.66 12.64 4.32 14 5 C13.67 6.32 13.34 7.64 13 9 C11.02090602 9.02686553 9.04171029 9.04633375 7.0625 9.0625 C5.96035156 9.07410156 4.85820312 9.08570313 3.72265625 9.09765625 C1 9 1 9 0 8 C-0.14115161 5.32941149 -0.04247107 2.67567762 0 0 Z " fill="#1B7D90" transform="translate(377,351)"/>
<path d="M0 0 C1.32 0 2.64 0 4 0 C4 1.65 4 3.3 4 5 C6.96892711 5.98964237 9.01149908 6.15273727 12.11401367 6.20532227 C13.67529243 6.2352401 13.67529243 6.2352401 15.26811218 6.26576233 C16.39006485 6.28247482 17.51201752 6.29918732 18.66796875 6.31640625 C19.81791824 6.33718735 20.96786774 6.35796844 22.15266418 6.37937927 C25.83088125 6.44483342 29.50917048 6.50374074 33.1875 6.5625 C35.67904396 6.60568913 38.17058059 6.64930355 40.66210938 6.69335938 C46.77466301 6.80051061 52.88728864 6.90228483 59 7 C59 7.33 59 7.66 59 8 C39.53 8 20.06 8 0 8 C0 5.36 0 2.72 0 0 Z " fill="#24B4CE" transform="translate(297,366)"/>
<path d="M0 0 C1.32 0 2.64 0 4 0 C4 0.66 4 1.32 4 2 C4.99 1.34 5.98 0.68 7 0 C9.6875 -0.125 9.6875 -0.125 12 0 C12.04254356 1.99954746 12.04080783 4.00041636 12 6 C11 7 11 7 8.53125 7.1328125 C7.03078125 7.12894531 7.03078125 7.12894531 5.5 7.125 C4.4996875 7.12757813 3.499375 7.13015625 2.46875 7.1328125 C0 7 0 7 -1 6 C-1.125 3.5 -1.125 3.5 -1 1 C-0.67 0.67 -0.34 0.34 0 0 Z " fill="#111921" transform="translate(237,480)"/>
<path d="M0 0 C3.96 0 7.92 0 12 0 C10.68 0.33 9.36 0.66 8 1 C8 1.99 8 2.98 8 4 C9.32 4.33 10.64 4.66 12 5 C10.68 5 9.36 5 8 5 C8 5.99 8 6.98 8 8 C9.32 8.33 10.64 8.66 12 9 C7.66666667 9 3.33333333 9 -1 9 C-0.01 8.01 0.98 7.02 2 6 C1.01 5.34 0.02 4.68 -1 4 C-0.67 2.68 -0.34 1.36 0 0 Z " fill="#1D879C" transform="translate(425,334)"/>
<path d="M0 0 C0.66 0 1.32 0 2 0 C2 0.99 2 1.98 2 3 C3.32 3.33 4.64 3.66 6 4 C6 5.98 6 7.96 6 10 C5.67 10 5.34 10 5 10 C4.67 8.35 4.34 6.7 4 5 C3.67 5 3.34 5 3 5 C2.67 6.65 2.34 8.3 2 10 C-0.33294775 10.04241723 -2.66702567 10.04092937 -5 10 C-6 9 -6 9 -6.0625 6.4375 C-6.041875 5.633125 -6.02125 4.82875 -6 4 C-4.35 3.67 -2.7 3.34 -1 3 C-0.67 2.01 -0.34 1.02 0 0 Z " fill="#29404F" transform="translate(315,477)"/>
<path d="M0 0 C0.66 0 1.32 0 2 0 C2 0.99 2 1.98 2 3 C3.32 3.33 4.64 3.66 6 4 C6 5.98 6 7.96 6 10 C5.67 10 5.34 10 5 10 C4.67 8.35 4.34 6.7 4 5 C3.67 5 3.34 5 3 5 C2.67 6.65 2.34 8.3 2 10 C-0.33294775 10.04241723 -2.66702567 10.04092937 -5 10 C-6 9 -6 9 -6.0625 6.4375 C-6.041875 5.633125 -6.02125 4.82875 -6 4 C-4.35 3.67 -2.7 3.34 -1 3 C-0.67 2.01 -0.34 1.02 0 0 Z " fill="#29404F" transform="translate(279,477)"/>
<path d="M0 0 C0.66 0 1.32 0 2 0 C2 0.66 2 1.32 2 2 C3.65 1.34 5.3 0.68 7 0 C9.09230769 4.43076923 9.09230769 4.43076923 8.625 7.3125 C8.41875 7.869375 8.2125 8.42625 8 9 C8 8.34 8 7.68 8 7 C6.68 7 5.36 7 4 7 C4 7.66 4 8.32 4 9 C2.35 9 0.7 9 -1 9 C-1.80967438 6.08517222 -2.21845993 4.53886783 -1.0625 1.6875 C-0.711875 1.130625 -0.36125 0.57375 0 0 Z " fill="#1B7683" transform="translate(521,334)"/>
<path d="M0 0 C1.81242052 -0.02687279 3.62495233 -0.04633715 5.4375 -0.0625 C6.44683594 -0.07410156 7.45617187 -0.08570313 8.49609375 -0.09765625 C11 0 11 0 12 1 C12.04063832 2.66617115 12.042721 4.33388095 12 6 C7.79495242 7.20144217 4.20504758 7.20144217 0 6 C0.99 6 1.98 6 3 6 C3 5.34 3 4.68 3 4 C2.01 3.67 1.02 3.34 0 3 C0 2.01 0 1.02 0 0 Z " fill="#253A49" transform="translate(208,457)"/>
<path d="M0 0 C2.31 0 4.62 0 7 0 C7 2.97 7 5.94 7 9 C4.69 9 2.38 9 0 9 C0 6.03 0 3.06 0 0 Z " fill="#18626E" transform="translate(486,334)"/>
<path d="M0 0 C2.97 0 5.94 0 9 0 C8.67 0.66 8.34 1.32 8 2 C7.34 2 6.68 2 6 2 C6 3.65 6 5.3 6 7 C6.66 7.33 7.32 7.66 8 8 C7.67 6.68 7.34 5.36 7 4 C7.66 4 8.32 4 9 4 C9 5.65 9 7.3 9 9 C5.7 9 2.4 9 -1 9 C-2.16552619 4.80410573 -2.08954032 4.17908064 0 0 Z " fill="#1C8698" transform="translate(447,566)"/>
<path d="M0 0 C1.32 0 2.64 0 4 0 C4 4.62 4 9.24 4 14 C2.68 14 1.36 14 0 14 C0 9.38 0 4.76 0 0 Z " fill="#1B8399" transform="translate(602,332)"/>
<path d="M0 0 C1.32 0 2.64 0 4 0 C4 4.62 4 9.24 4 14 C2.68 14 1.36 14 0 14 C0 9.38 0 4.76 0 0 Z " fill="#1B8399" transform="translate(293,332)"/>
<path d="M0 0 C0 0.99 0 1.98 0 3 C1.43750191 4.68798827 1.43750191 4.68798827 3 6 C-3.28571429 8.42857143 -3.28571429 8.42857143 -7 7 C-7 4.69 -7 2.38 -7 0 C-3.98968256 -0.93423645 -3.13349732 -1.04449911 0 0 Z " fill="#0D2735" transform="translate(425,335)"/>
<path d="M0 0 C0.33 0.66 0.66 1.32 1 2 C10.57 2 20.14 2 30 2 C30 2.33 30 2.66 30 3 C21.09 3 12.18 3 3 3 C3 4.98 3 6.96 3 9 C2.01 9 1.02 9 0 9 C0 6.03 0 3.06 0 0 Z " fill="#24B2CC" transform="translate(297,320)"/>
<path d="M0 0 C2.31 0 4.62 0 7 0 C6.01 0.495 6.01 0.495 5 1 C5 3.31 5 5.62 5 8 C5.66 8.33 6.32 8.66 7 9 C4.69 9 2.38 9 0 9 C0 6.03 0 3.06 0 0 Z " fill="#17657A" transform="translate(507,334)"/>
<path d="M0 0 C4.875 0.875 4.875 0.875 6 2 C6.1875 4.4375 6.1875 4.4375 6 7 C5.34 7.66 4.68 8.32 4 9 C2.68 9 1.36 9 0 9 C0 6.03 0 3.06 0 0 Z " fill="#22B7CC" transform="translate(426,566)"/>
<path d="M0 0 C2.125 0.375 2.125 0.375 4 1 C4 3.31 4 5.62 4 8 C2.35 8.33 0.7 8.66 -1 9 C-1.625 5.625 -1.625 5.625 -2 2 C-1.34 1.34 -0.68 0.68 0 0 Z " fill="#21ABC1" transform="translate(411,566)"/>
<path d="M0 0 C3.69230769 0.69230769 3.69230769 0.69230769 5 2 C4.71269945 4.33944736 4.38063221 6.6739143 4 9 C2.35 8.67 0.7 8.34 -1 8 C-1.04241723 5.66705225 -1.04092937 3.33297433 -1 1 C-0.67 0.67 -0.34 0.34 0 0 Z " fill="#24A8C1" transform="translate(172,501)"/>
<path d="M0 0 C0.99 0 1.98 0 3 0 C3.33 0.99 3.66 1.98 4 3 C4.33 2.01 4.66 1.02 5 0 C5.66 0 6.32 0 7 0 C7 2.97 7 5.94 7 9 C6.01 9 5.02 9 4 9 C3.67 8.01 3.34 7.02 3 6 C2.67 6.99 2.34 7.98 2 9 C1.34 9 0.68 9 0 9 C0 6.03 0 3.06 0 0 Z " fill="#1D95B6" transform="translate(423,351)"/>
<path d="M0 0 C2.125 0.375 2.125 0.375 4 1 C4 3.31 4 5.62 4 8 C2.125 8.625 2.125 8.625 0 9 C-2 7 -2 7 -2.25 4.5 C-2 2 -2 2 0 0 Z " fill="#1B7F93" transform="translate(477,566)"/>
<path d="M0 0 C1.2065625 0.0309375 1.2065625 0.0309375 2.4375 0.0625 C2.5625 7.8125 2.5625 7.8125 1.4375 10.0625 C0.1175 9.7325 -1.2025 9.4025 -2.5625 9.0625 C-1.5725 9.0625 -0.5825 9.0625 0.4375 9.0625 C0.4375 8.4025 0.4375 7.7425 0.4375 7.0625 C-0.5525 7.0625 -1.5425 7.0625 -2.5625 7.0625 C-2.94383299 5.0710944 -3.27575582 3.06970923 -3.5625 1.0625 C-2.5625 0.0625 -2.5625 0.0625 0 0 Z " fill="#2E4859" transform="translate(210.5625,433.9375)"/>
<path d="M0 0 C3.69230769 0.69230769 3.69230769 0.69230769 5 2 C5.1875 4.4375 5.1875 4.4375 5 7 C4.34 7.66 3.68 8.32 3 9 C0.875 8.625 0.875 8.625 -1 8 C-1.04241723 5.66705225 -1.04092937 3.33297433 -1 1 C-0.67 0.67 -0.34 0.34 0 0 Z " fill="#1B8193" transform="translate(417,351)"/>
<path d="M0 0 C3.63 0 7.26 0 11 0 C10.01 0.495 10.01 0.495 9 1 C9 1.99 9 2.98 9 4 C9.66 4.33 10.32 4.66 11 5 C10.34 5 9.68 5 9 5 C9 6.32 9 7.64 9 9 C8.34 9 7.68 9 7 9 C7 6.36 7 3.72 7 1 C6.01 1 5.02 1 4 1 C4 3.64 4 6.28 4 9 C3.34 9 2.68 9 2 9 C2 6.36 2 3.72 2 1 C1.34 0.67 0.68 0.34 0 0 Z " fill="#23A1B9" transform="translate(142,501)"/>
<path d="M0 0 C2 0 4 0 6 0 C6 2.97 6 5.94 6 9 C5.34 9 4.68 9 4 9 C3.67 8.34 3.34 7.68 3 7 C2.67 7.66 2.34 8.32 2 9 C1.34 9 0.68 9 0 9 C0 6.03 0 3.06 0 0 Z " fill="#2195AC" transform="translate(178,501)"/>
<path d="M0 0 C0.99 0 1.98 0 3 0 C3 4.62 3 9.24 3 14 C2.01 14 1.02 14 0 14 C0 9.38 0 4.76 0 0 Z " fill="#1E96A8" transform="translate(564,349)"/>
<path d="M0 0 C0.99 0 1.98 0 3 0 C3 4.62 3 9.24 3 14 C2.01 14 1.02 14 0 14 C0 9.38 0 4.76 0 0 Z " fill="#1C90AF" transform="translate(332,349)"/>
<path d="M0 0 C2.0625 0.4375 2.0625 0.4375 4 1 C4 3.31 4 5.62 4 8 C2.0625 8.5625 2.0625 8.5625 0 9 C-1 8 -1 8 -1.125 4.5 C-1 1 -1 1 0 0 Z " fill="#1B8295" transform="translate(485,566)"/>
<path d="M0 0 C2 0 4 0 6 0 C6 2.97 6 5.94 6 9 C5.34 9 4.68 9 4 9 C4 8.01 4 7.02 4 6 C3.34 6 2.68 6 2 6 C1.34 6.99 0.68 7.98 0 9 C0 6.03 0 3.06 0 0 Z " fill="#20A1B0" transform="translate(501,334)"/>
<path d="M0 0 C0.33 0 0.66 0 1 0 C1 3.3 1 6.6 1 10 C-0.65 9.67 -2.3 9.34 -4 9 C-4.625 7.125 -4.625 7.125 -5 5 C-4.34 4.34 -3.68 3.68 -3 3 C-2.01 3 -1.02 3 0 3 C0 2.01 0 1.02 0 0 Z " fill="#2F495B" transform="translate(154,454)"/>
<path d="M0 0 C0.33 0 0.66 0 1 0 C1 3.3 1 6.6 1 10 C-0.65 9.67 -2.3 9.34 -4 9 C-4.625 7.125 -4.625 7.125 -5 5 C-4.34 4.34 -3.68 3.68 -3 3 C-2.01 3 -1.02 3 0 3 C0 2.01 0 1.02 0 0 Z " fill="#2F495B" transform="translate(154,431)"/>
<path d="M0 0 C0.33 0 0.66 0 1 0 C1 3.3 1 6.6 1 10 C-0.65 9.67 -2.3 9.34 -4 9 C-4.625 7.125 -4.625 7.125 -5 5 C-4.34 4.34 -3.68 3.68 -3 3 C-2.01 3 -1.02 3 0 3 C0 2.01 0 1.02 0 0 Z " fill="#2F495B" transform="translate(154,409)"/>
<path d="M0 0 C0.99 0 1.98 0 3 0 C3.66 2.97 4.32 5.94 5 9 C4.34 9 3.68 9 3 9 C3 8.34 3 7.68 3 7 C2.01 7 1.02 7 0 7 C0 7.66 0 8.32 0 9 C-0.66 8.67 -1.32 8.34 -2 8 C-1.125 1.125 -1.125 1.125 0 0 Z " fill="#1D95AE" transform="translate(363,351)"/>
<path d="M0 0 C0.66 0 1.32 0 2 0 C2.33 0.66 2.66 1.32 3 2 C3.33 1.34 3.66 0.68 4 0 C4.66 0 5.32 0 6 0 C6 2.97 6 5.94 6 9 C5.01 8.67 4.02 8.34 3 8 C2.67 7.34 2.34 6.68 2 6 C1.34 6.99 0.68 7.98 0 9 C0 6.03 0 3.06 0 0 Z " fill="#21ABBD" transform="translate(447,351)"/>
<path d="M0 0 C0.66 0 1.32 0 2 0 C2 1.32 2 2.64 2 4 C2.66 4 3.32 4 4 4 C4 2.68 4 1.36 4 0 C4.66 0 5.32 0 6 0 C6 2.97 6 5.94 6 9 C5.34 9 4.68 9 4 9 C4 7.68 4 6.36 4 5 C3.34 5 2.68 5 2 5 C2 6.32 2 7.64 2 9 C1.34 9 0.68 9 0 9 C0 6.03 0 3.06 0 0 Z " fill="#20A0B7" transform="translate(462,334)"/>
<path d="M0 0 C0.99 0 1.98 0 3 0 C3.66 2.97 4.32 5.94 5 9 C4.34 9 3.68 9 3 9 C3 8.34 3 7.68 3 7 C2.01 7 1.02 7 0 7 C0 7.66 0 8.32 0 9 C-0.66 9 -1.32 9 -2 9 C-1.34 6.03 -0.68 3.06 0 0 Z " fill="#1F99AF" transform="translate(419,566)"/>
<path d="M0 0 C0.99 0.33 1.98 0.66 3 1 C3 1.66 3 2.32 3 3 C3.99 3.33 4.98 3.66 6 4 C6 5.65 6 7.3 6 9 C4.68 9 3.36 9 2 9 C2 8.01 2 7.02 2 6 C1.34 5.67 0.68 5.34 0 5 C-0.6875 3 -0.6875 3 -1 1 C-0.67 0.67 -0.34 0.34 0 0 Z " fill="#1B8298" transform="translate(492,566)"/>
<path d="M0 0 C0.66 0 1.32 0 2 0 C2.33 0.66 2.66 1.32 3 2 C3.33 1.34 3.66 0.68 4 0 C4.66 0 5.32 0 6 0 C6 2.97 6 5.94 6 9 C5.01 8.67 4.02 8.34 3 8 C2.67 7.01 2.34 6.02 2 5 C1.34 6.32 0.68 7.64 0 9 C0 6.03 0 3.06 0 0 Z " fill="#23A6BE" transform="translate(200,501)"/>
<path d="M0 0 C1.32 0 2.64 0 4 0 C4 2.64 4 5.28 4 8 C0.04 8 -3.92 8 -8 8 C-8 7.67 -8 7.34 -8 7 C-3.545 6.505 -3.545 6.505 1 6 C0.67 5.67 0.34 5.34 0 5 C-0.04063832 3.33382885 -0.042721 1.66611905 0 0 Z " fill="#25B2B0" transform="translate(598,366)"/>
<path d="M0 0 C0.99 0 1.98 0 3 0 C3.66 2.97 4.32 5.94 5 9 C4.34 9 3.68 9 3 9 C3 8.34 3 7.68 3 7 C2.01 7 1.02 7 0 7 C0 7.66 0 8.32 0 9 C-0.66 9 -1.32 9 -2 9 C-1.34 6.03 -0.68 3.06 0 0 Z " fill="#209EB4" transform="translate(394,334)"/>
<path d="M0 0 C2.475 0.495 2.475 0.495 5 1 C5 2.65 5 4.3 5 6 C4.360625 6.103125 3.72125 6.20625 3.0625 6.3125 C2.381875 6.539375 1.70125 6.76625 1 7 C0.67 7.99 0.34 8.98 0 10 C0 6.7 0 3.4 0 0 Z " fill="#2F4A5C" transform="translate(186,457)"/>
<path d="M0 0 C0.33 0 0.66 0 1 0 C1 3.3 1 6.6 1 10 C-0.65 9.67 -2.3 9.34 -4 9 C-4 7.35 -4 5.7 -4 4 C-2.68 3.67 -1.36 3.34 0 3 C0 2.01 0 1.02 0 0 Z " fill="#2E4859" transform="translate(269,431)"/>
<path d="M0 0 C2.0625 0.4375 2.0625 0.4375 4 1 C5.125 4.75 5.125 4.75 4 7 C2.35 6.67 0.7 6.34 -1 6 C-1.042721 4.33388095 -1.04063832 2.66617115 -1 1 C-0.67 0.67 -0.34 0.34 0 0 Z " fill="#2A4252" transform="translate(136,480)"/>
<path d="M0 0 C1.32 0 2.64 0 4 0 C4 2.97 4 5.94 4 9 C3.67 8.34 3.34 7.68 3 7 C0.97536745 6.34786708 0.97536745 6.34786708 -1 6 C-1.042721 4.33388095 -1.04063832 2.66617115 -1 1 C-0.67 0.67 -0.34 0.34 0 0 Z " fill="#2D4859" transform="translate(172,457)"/>
<path d="M0 0 C2.0625 0.4375 2.0625 0.4375 4 1 C5.125 4.75 5.125 4.75 4 7 C2.35 6.67 0.7 6.34 -1 6 C-1.042721 4.33388095 -1.04063832 2.66617115 -1 1 C-0.67 0.67 -0.34 0.34 0 0 Z " fill="#2A4251" transform="translate(136,457)"/>
<path d="M0 0 C2.0625 0.4375 2.0625 0.4375 4 1 C5.125 4.75 5.125 4.75 4 7 C2.35 6.67 0.7 6.34 -1 6 C-1.042721 4.33388095 -1.04063832 2.66617115 -1 1 C-0.67 0.67 -0.34 0.34 0 0 Z " fill="#2A4252" transform="translate(136,434)"/>
<path d="M0 0 C1.32 0 2.64 0 4 0 C4 2.97 4 5.94 4 9 C3.67 8.34 3.34 7.68 3 7 C0.97536745 6.34786708 0.97536745 6.34786708 -1 6 C-1.042721 4.33388095 -1.04063832 2.66617115 -1 1 C-0.67 0.67 -0.34 0.34 0 0 Z " fill="#2E4859" transform="translate(230,434)"/>
<path d="M0 0 C1.32 0 2.64 0 4 0 C4 2.97 4 5.94 4 9 C3.67 8.34 3.34 7.68 3 7 C0.97536745 6.34786708 0.97536745 6.34786708 -1 6 C-1.042721 4.33388095 -1.04063832 2.66617115 -1 1 C-0.67 0.67 -0.34 0.34 0 0 Z " fill="#2E4859" transform="translate(172,434)"/>
<path d="M0 0 C1.32 0 2.64 0 4 0 C4 2.97 4 5.94 4 9 C3.67 8.34 3.34 7.68 3 7 C0.97536745 6.34786708 0.97536745 6.34786708 -1 6 C-1.042721 4.33388095 -1.04063832 2.66617115 -1 1 C-0.67 0.67 -0.34 0.34 0 0 Z " fill="#2D4859" transform="translate(172,412)"/>
<path d="M0 0 C2.0625 0.4375 2.0625 0.4375 4 1 C5.125 4.75 5.125 4.75 4 7 C2.35 6.67 0.7 6.34 -1 6 C-1.042721 4.33388095 -1.04063832 2.66617115 -1 1 C-0.67 0.67 -0.34 0.34 0 0 Z " fill="#2A4251" transform="translate(136,412)"/>
<path d="M0 0 C2.125 0.375 2.125 0.375 4 1 C4 2.98 4 4.96 4 7 C2.35 6.67 0.7 6.34 -1 6 C-1.625 4.125 -1.625 4.125 -2 2 C-1.34 1.34 -0.68 0.68 0 0 Z " fill="#2E495A" transform="translate(339,480)"/>
<path d="M0 0 C2.125 0.375 2.125 0.375 4 1 C4 2.98 4 4.96 4 7 C2.35 6.67 0.7 6.34 -1 6 C-1.625 4.125 -1.625 4.125 -2 2 C-1.34 1.34 -0.68 0.68 0 0 Z " fill="#2E4859" transform="translate(274,434)"/>
<path d="M0 0 C2.475 0.495 2.475 0.495 5 1 C5.33 3.64 5.66 6.28 6 9 C4.35 7.68 2.7 6.36 1 5 C0.67 6.32 0.34 7.64 0 9 C0 6.03 0 3.06 0 0 Z " fill="#1FA1B8" transform="translate(447,334)"/>
<path d="M0 0 C2.475 0.495 2.475 0.495 5 1 C5.33 3.64 5.66 6.28 6 9 C4.35 7.68 2.7 6.36 1 5 C0.67 6.32 0.34 7.64 0 9 C0 6.03 0 3.06 0 0 Z " fill="#1FA1B7" transform="translate(385,334)"/>
<path d="M0 0 C0.66 0 1.32 0 2 0 C4.09230769 4.43076923 4.09230769 4.43076923 3.625 7.3125 C3.41875 7.869375 3.2125 8.42625 3 9 C3 8.34 3 7.68 3 7 C1.68 7 0.36 7 -1 7 C-1.33 7.66 -1.66 8.32 -2 9 C-1.125 1.125 -1.125 1.125 0 0 Z " fill="#20A3BD" transform="translate(526,334)"/>
<path d="M0 0 C1.32 0.33 2.64 0.66 4 1 C3.34 1 2.68 1 2 1 C2 1.99 2 2.98 2 4 C2.66 4 3.32 4 4 4 C4.33 3.34 4.66 2.68 5 2 C5.33 4.31 5.66 6.62 6 9 C5.01 8.01 4.02 7.02 3 6 C2.67 6.99 2.34 7.98 2 9 C1.34 9 0.68 9 0 9 C0 6.03 0 3.06 0 0 Z " fill="#21A9BF" transform="translate(408,334)"/>
<path d="M0 0 C2.0625 0.4375 2.0625 0.4375 4 1 C4 2.65 4 4.3 4 6 C2.0625 6.5625 2.0625 6.5625 0 7 C-1 6 -1 6 -1.125 3.5 C-1 1 -1 1 0 0 Z " fill="#2B4454" transform="translate(216,480)"/>
<path d="M0 0 C1.65 0.33 3.3 0.66 5 1 C5 2.98 5 4.96 5 7 C3.35 7 1.7 7 0 7 C0 5.68 0 4.36 0 3 C0.99 3 1.98 3 3 3 C3 2.34 3 1.68 3 1 C2.01 1.33 1.02 1.66 0 2 C0 1.34 0 0.68 0 0 Z " fill="#324E61" transform="translate(143,457)"/>
<path d="M0 0 C2.0625 0.4375 2.0625 0.4375 4 1 C4 2.65 4 4.3 4 6 C2.0625 6.5625 2.0625 6.5625 0 7 C-1 6 -1 6 -1.125 3.5 C-1 1 -1 1 0 0 Z " fill="#2B4454" transform="translate(259,434)"/>
<path d="M0 0 C1.65 0.33 3.3 0.66 5 1 C5 2.98 5 4.96 5 7 C3.35 7 1.7 7 0 7 C0 5.68 0 4.36 0 3 C0.99 3 1.98 3 3 3 C3 2.34 3 1.68 3 1 C2.01 1.33 1.02 1.66 0 2 C0 1.34 0 0.68 0 0 Z " fill="#324E61" transform="translate(143,412)"/>
<path d="M0 0 C1.32 0 2.64 0 4 0 C4 1.65 4 3.3 4 5 C4.99 5.33 5.98 5.66 7 6 C4.69 6.66 2.38 7.32 0 8 C0 5.36 0 2.72 0 0 Z " fill="#1C8BA2" transform="translate(297,366)"/>
<path d="M0 0 C0.66 0 1.32 0 2 0 C4.09230769 4.43076923 4.09230769 4.43076923 3.625 7.3125 C3.41875 7.869375 3.2125 8.42625 3 9 C3 8.34 3 7.68 3 7 C1.68 7 0.36 7 -1 7 C-1.33 7.66 -1.66 8.32 -2 9 C-1.51421457 5.87709365 -1.0013988 3.00419641 0 0 Z " fill="#21A7BE" transform="translate(441,334)"/>
<path d="M0 0 C2.475 0.495 2.475 0.495 5 1 C5 2.98 5 4.96 5 7 C3.35 7 1.7 7 0 7 C0.2784375 6.1028125 0.2784375 6.1028125 0.5625 5.1875 C1.22093687 2.83591238 1.22093687 2.83591238 0 0 Z " fill="#325062" transform="translate(258,480)"/>
<path d="M0 0 C1.98 0 3.96 0 6 0 C4.68 0.33 3.36 0.66 2 1 C2 1.99 2 2.98 2 4 C2.99 4.33 3.98 4.66 5 5 C4.01 5 3.02 5 2 5 C2 5.99 2 6.98 2 8 C3.32 8.33 4.64 8.66 6 9 C4.02 9 2.04 9 0 9 C0 6.03 0 3.06 0 0 Z " fill="#25B8CC" transform="translate(416,334)"/>
<path d="M0 0 C1.32 0 2.64 0 4 0 C4.33 1.32 4.66 2.64 5 4 C3.68 4.33 2.36 4.66 1 5 C1.99 5.66 2.98 6.32 4 7 C2.35 6.67 0.7 6.34 -1 6 C-1.042721 4.33388095 -1.04063832 2.66617115 -1 1 C-0.67 0.67 -0.34 0.34 0 0 Z " fill="#365569" transform="translate(237,480)"/>
<path d="M0 0 C1.32 0 2.64 0 4 0 C4.33 1.32 4.66 2.64 5 4 C3.68 4.33 2.36 4.66 1 5 C1.99 5.66 2.98 6.32 4 7 C2.35 6.67 0.7 6.34 -1 6 C-1.042721 4.33388095 -1.04063832 2.66617115 -1 1 C-0.67 0.67 -0.34 0.34 0 0 Z " fill="#355467" transform="translate(237,434)"/>
<path d="M0 0 C2 0.25 2 0.25 4 1 C4.33 1.99 4.66 2.98 5 4 C3.68 4.33 2.36 4.66 1 5 C1.99 5.66 2.98 6.32 4 7 C2.35 6.67 0.7 6.34 -1 6 C-1.042721 4.33388095 -1.04063832 2.66617115 -1 1 C-0.67 0.67 -0.34 0.34 0 0 Z " fill="#37576A" transform="translate(158,480)"/>
<path d="M0 0 C2 0.25 2 0.25 4 1 C4.33 1.99 4.66 2.98 5 4 C3.68 4.33 2.36 4.66 1 5 C1.99 5.66 2.98 6.32 4 7 C2.35 6.67 0.7 6.34 -1 6 C-1.042721 4.33388095 -1.04063832 2.66617115 -1 1 C-0.67 0.67 -0.34 0.34 0 0 Z " fill="#365569" transform="translate(194,457)"/>
<path d="M0 0 C2 0.25 2 0.25 4 1 C4.33 1.99 4.66 2.98 5 4 C3.68 4.33 2.36 4.66 1 5 C1.99 5.66 2.98 6.32 4 7 C2.35 6.67 0.7 6.34 -1 6 C-1.042721 4.33388095 -1.04063832 2.66617115 -1 1 C-0.67 0.67 -0.34 0.34 0 0 Z " fill="#365569" transform="translate(194,412)"/>
<path d="M0 0 C1.65 0 3.3 0 5 0 C5 1.98 5 3.96 5 6 C3.35 6.33 1.7 6.66 0 7 C0.99 6.67 1.98 6.34 3 6 C3 5.34 3 4.68 3 4 C2.01 3.67 1.02 3.34 0 3 C0 2.01 0 1.02 0 0 Z " fill="#314C5F" transform="translate(244,480)"/>
<path d="M0 0 C1.65 0 3.3 0 5 0 C5 1.98 5 3.96 5 6 C3.35 6.33 1.7 6.66 0 7 C0.99 6.67 1.98 6.34 3 6 C3 5.34 3 4.68 3 4 C2.01 3.67 1.02 3.34 0 3 C0 2.01 0 1.02 0 0 Z " fill="#304B5D" transform="translate(208,457)"/>
<path d="M0 0 C0.33 0.66 0.66 1.32 1 2 C1.99 2 2.98 2 4 2 C4.33 1.34 4.66 0.68 5 0 C5 1.98 5 3.96 5 6 C3.35 5.67 1.7 5.34 0 5 C-0.5625 3.0625 -0.5625 3.0625 -1 1 C-0.67 0.67 -0.34 0.34 0 0 Z " fill="#324F61" transform="translate(215,413)"/>
<path d="M0 0 C1.98 0.495 1.98 0.495 4 1 C3.34 1.66 2.68 2.32 2 3 C2.99 3.66 3.98 4.32 5 5 C4.67 6.32 4.34 7.64 4 9 C2.68 8.67 1.36 8.34 0 8 C0.99 7.34 1.98 6.68 3 6 C1.68 5.34 0.36 4.68 -1 4 C-0.67 2.68 -0.34 1.36 0 0 Z " fill="#21A7C4" transform="translate(347,351)"/>
<path d="M0 0 C0.66 0.33 1.32 0.66 2 1 C1.9071875 2.1446875 1.9071875 2.1446875 1.8125 3.3125 C1.74101915 6.04525312 1.74101915 6.04525312 3.5 7.8125 C3.995 8.204375 4.49 8.59625 5 9 C3.68 9 2.36 9 1 9 C0.67 7.35 0.34 5.7 0 4 C-0.66 4 -1.32 4 -2 4 C-2 3.01 -2 2.02 -2 1 C-1.34 0.67 -0.68 0.34 0 0 Z " fill="#1C778A" transform="translate(153,501)"/>
<path d="M0 0 C0.33 0.66 0.66 1.32 1 2 C1.66 2 2.32 2 3 2 C3 4.31 3 6.62 3 9 C2.01 9 1.02 9 0 9 C0 6.03 0 3.06 0 0 Z " fill="#177FA8" transform="translate(297,320)"/>
<path d="M0 0 C0.33 0.66 0.66 1.32 1 2 C1.99 2 2.98 2 4 2 C4.33 1.34 4.66 0.68 5 0 C5 1.98 5 3.96 5 6 C3.35 5.67 1.7 5.34 0 5 C0 3.35 0 1.7 0 0 Z " fill="#345265" transform="translate(251,481)"/>
<path d="M0 0 C2.475 0.495 2.475 0.495 5 1 C5 2.98 5 4.96 5 7 C3.35 7 1.7 7 0 7 C0.99 6.67 1.98 6.34 3 6 C3 5.34 3 4.68 3 4 C2.34 3.67 1.68 3.34 1 3 C1.66 3 2.32 3 3 3 C3 2.34 3 1.68 3 1 C2.01 1.33 1.02 1.66 0 2 C0 1.34 0 0.68 0 0 Z " fill="#38596E" transform="translate(143,434)"/>
<path d="M0 0 C1.32 0.33 2.64 0.66 4 1 C3.34 1 2.68 1 2 1 C2 1.99 2 2.98 2 4 C2.66 4.33 3.32 4.66 4 5 C3.34 5 2.68 5 2 5 C2 6.32 2 7.64 2 9 C1.34 9 0.68 9 0 9 C0 6.03 0 3.06 0 0 Z " fill="#22AEC1" transform="translate(493,334)"/>
<path d="M0 0 C0.99 0.33 1.98 0.66 3 1 C2.67 3.64 2.34 6.28 2 9 C1.34 9 0.68 9 0 9 C0 6.03 0 3.06 0 0 Z " fill="#1E99B4" transform="translate(442,566)"/>
<path d="M0 0 C0.99 0.99 1.98 1.98 3 3 C3.33 2.01 3.66 1.02 4 0 C4.66 0 5.32 0 6 0 C5.34 2.31 4.68 4.62 4 7 C3.34 7 2.68 7 2 7 C0.5393715 4.35261084 0 3.10551666 0 0 Z " fill="#355468" transform="translate(330,480)"/>
<path d="M0 0 C0.66 0 1.32 0 2 0 C2 2.97 2 5.94 2 9 C1.01 9 0.02 9 -1 9 C-0.67 6.03 -0.34 3.06 0 0 Z " fill="#209EA6" transform="translate(428,351)"/>
<path d="M0 0 C0.99 0.33 1.98 0.66 3 1 C2.67 3.64 2.34 6.28 2 9 C1.34 9 0.68 9 0 9 C0 6.03 0 3.06 0 0 Z " fill="#1E9FBA" transform="translate(516,334)"/>
<path d="M0 0 C1.98 0.495 1.98 0.495 4 1 C4 2.65 4 4.3 4 6 C2.68 6 1.36 6 0 6 C-1.125 2.25 -1.125 2.25 0 0 Z " fill="#17242F" transform="translate(142,434)"/>
<path d="M0 0 C0.99 0.33 1.98 0.66 3 1 C3 2.65 3 4.3 3 6 C2.01 6.33 1.02 6.66 0 7 C0 4.69 0 2.38 0 0 Z " fill="#132F30" transform="translate(427,567)"/>
<path d="M0 0 C0.99 0.33 1.98 0.66 3 1 C3 2.65 3 4.3 3 6 C2.01 6.33 1.02 6.66 0 7 C0 4.69 0 2.38 0 0 Z " fill="#102D40" transform="translate(411,567)"/>
<path d="M0 0 C0.66 0 1.32 0 2 0 C2 2.31 2 4.62 2 7 C1.01 6.67 0.02 6.34 -1 6 C-1.042721 4.33388095 -1.04063832 2.66617115 -1 1 C-0.67 0.67 -0.34 0.34 0 0 Z " fill="#0F2A33" transform="translate(173,502)"/>
<path d="M0 0 C1.32 0.33 2.64 0.66 4 1 C3.67 2.32 3.34 3.64 3 5 C2.01 5 1.02 5 0 5 C0 3.35 0 1.7 0 0 Z " fill="#1F303C" transform="translate(193,481)"/>
<path d="M0 0 C0.99 0 1.98 0 3 0 C3 2.31 3 4.62 3 7 C2.01 6.34 1.02 5.68 0 5 C-0.1875 2.375 -0.1875 2.375 0 0 Z " fill="#1879A4" transform="translate(598,366)"/>
</svg>
